<?xml version="1.0" standalone="no"?>
<!DOCTYPE svg PUBLIC "-//W3C//DTD SVG 20010904//EN"
 "http://www.w3.org/TR/2001/REC-SVG-20010904/DTD/svg10.dtd">
<svg version="1.0" xmlns="http://www.w3.org/2000/svg"
 width="1080.000000pt" height="1080.000000pt" viewBox="0 0 1080.000000 1080.000000"
 preserveAspectRatio="xMidYMid meet">
<metadata>
Created by potrace 1.14, written by Peter Selinger 2001-2017
</metadata>
<g transform="translate(0.000000,1080.000000) scale(0.100000,-0.100000)"
fill="#000000" stroke="none">
<path d="M0 5890 l0 -4910 490 0 490 0 0 -490 0 -490 2688 0 2687 0 2223 2223
2222 2222 0 2688 0 2687 -490 0 -490 0 0 490 0 490 -4910 0 -4910 0 0 -4910z
m9160 1625 l0 -2635 -1640 0 -1640 0 0 -1620 0 -1620 -2615 0 -2615 0 0 4248
c0 2337 3 4252 7 4255 3 4 1918 7 4255 7 l4248 0 0 -2635z m-1295 -4605 c-726
-726 -1323 -1320 -1327 -1320 -5 0 -8 594 -8 1320 l0 1320 1327 0 1328 0
-1320 -1320z"/>
<path d="M3240 5855 l0 -2155 438 2 437 3 3 783 2 782 328 0 c180 0 379 5 442
11 389 35 700 170 935 404 199 198 325 453 366 743 17 122 6 422 -19 537 -117
523 -507 887 -1071 1001 -181 37 -354 43 -1153 44 l-708 0 0 -2155z m1665
1332 c214 -61 367 -220 404 -421 15 -81 14 -187 -3 -266 -33 -156 -137 -290
-280 -360 -129 -64 -173 -70 -563 -70 l-343 0 0 571 0 571 363 -4 c302 -4 372
-7 422 -21z"/>
</g>
</svg>
